<svg width="24" height="24" viewBox="0 0 24 24" xmlns="http://www.w3.org/2000/svg">
    <path id="telega" d="M12 2C6.48 2 2 6.48 2 12C2 17.52 6.48 22 12 22C17.52 22 22 17.52 22 12C22 6.48 17.52 2 12 2ZM16.64 8.8C16.49 10.38 15.84 14.22 15.51 15.99C15.37 16.74 15.09 16.99 14.83 17.02C14.25 17.07 13.81 16.64 13.25 16.27C12.37 15.69 11.87 15.33 11.02 14.77C10.03 14.12 10.67 13.76 11.24 13.18C11.39 13.03 13.95 10.7 14 10.49C14.0069 10.4582 14.006 10.4252 13.9973 10.3938C13.9886 10.3624 13.9724 10.3337 13.95 10.31C13.89 10.26 13.81 10.28 13.74 10.29C13.65 10.31 12.25 11.24 9.52 13.08C9.12 13.35 8.76 13.49 8.44 13.48C8.08 13.47 7.4 13.28 6.89 13.11C6.26 12.91 5.77 12.8 5.81 12.45C5.83 12.27 6.08 12.09 6.55 11.9C9.47 10.63 11.41 9.79 12.38 9.39C15.16 8.23 15.73 8.03 16.11 8.03C16.19 8.03 16.38 8.05 16.5 8.15C16.6 8.23 16.63 8.34 16.64 8.42C16.63 8.48 16.65 8.66 16.64 8.8Z" />

    <path id="git" d="M19.9549 3.04515C19.2575 2.34775 18.4184 1.99937 17.4376 2H5.56244C4.58101 2 3.74191 2.34838 3.04515 3.04515C2.34775 3.74255 1.99937 4.58165 2 5.56244V17.4376C2 18.419 2.34838 19.2581 3.04515 19.9549C3.74255 20.6523 4.58165 21.0006 5.56244 21H8.33365C8.51434 21 8.65033 20.9937 8.74163 20.981C8.84796 20.96 8.94392 20.9033 9.01362 20.8203C9.10428 20.7252 9.14961 20.5873 9.14961 20.4066L9.14295 19.5649C9.13915 19.0286 9.13725 18.6038 9.13725 18.2906L8.85195 18.3401C8.67126 18.373 8.4427 18.3876 8.16628 18.3838C7.87784 18.3783 7.59032 18.3493 7.30657 18.2973C7.00425 18.2424 6.71971 18.1152 6.4773 17.9264C6.22286 17.734 6.03311 17.4686 5.93333 17.1656L5.8097 16.8803C5.7051 16.6554 5.57422 16.4438 5.41979 16.2498C5.24227 16.019 5.06285 15.8624 4.88153 15.78L4.79594 15.7182C4.7365 15.6751 4.68225 15.6253 4.63427 15.5698C4.58843 15.5182 4.55089 15.4598 4.523 15.3967C4.49827 15.3384 4.51888 15.2908 4.58481 15.2541C4.65075 15.216 4.77058 15.1973 4.94429 15.198L5.19155 15.236C5.35639 15.2683 5.56022 15.3669 5.80304 15.5318C6.04846 15.6991 6.25346 15.919 6.40312 16.1756C6.59332 16.5129 6.8222 16.7706 7.08975 16.9487C7.35793 17.1263 7.62801 17.215 7.9 17.215C8.17198 17.215 8.4072 17.1944 8.60564 17.1532C8.79782 17.1134 8.98458 17.0508 9.16197 16.9668C9.23615 16.4146 9.43808 15.9898 9.76776 15.6925C9.34021 15.6502 8.91645 15.5758 8.50008 15.4699C8.09376 15.3585 7.70302 15.1965 7.337 14.9878C6.95398 14.7793 6.61568 14.4975 6.34131 14.1585C6.07757 13.8288 5.86105 13.3961 5.69178 12.8604C5.52313 12.324 5.43881 11.7053 5.43881 11.0041C5.43881 10.0068 5.76437 9.15722 6.41549 8.45538C6.11117 7.70536 6.14001 6.86468 6.50203 5.93333C6.74168 5.85852 7.0964 5.91399 7.5662 6.09976C8.03599 6.28552 8.38025 6.44402 8.59898 6.57525C8.81771 6.70839 8.99301 6.81998 9.12488 6.91001C9.89794 6.69446 10.697 6.5863 11.4995 6.58857C12.3161 6.58857 13.108 6.69571 13.8751 6.91001L14.3449 6.61329C14.7063 6.39634 15.0874 6.2142 15.4833 6.06932C15.9201 5.90448 16.2542 5.85915 16.4856 5.93333C16.8565 6.86531 16.8892 7.70631 16.5836 8.45633C17.2353 9.1569 17.5612 10.0065 17.5612 11.005C17.5612 11.7062 17.4766 12.3266 17.3073 12.8661C17.1386 13.4063 16.9202 13.8393 16.652 14.1652C16.372 14.499 16.0325 14.7779 15.6506 14.9878C15.2512 15.2103 14.8635 15.371 14.4876 15.4699C14.0712 15.5762 13.6475 15.6509 13.2199 15.6934C13.6478 16.0643 13.8621 16.6495 13.8628 17.449V20.4066C13.8628 20.5461 13.8834 20.6592 13.9246 20.7461C13.9438 20.7878 13.9712 20.8252 14.0052 20.8561C14.0392 20.8869 14.079 20.9107 14.1224 20.9258C14.213 20.9588 14.2936 20.9791 14.3639 20.9867C14.4343 20.9956 14.5351 20.9997 14.6664 20.999H17.4376C18.419 20.999 19.2581 20.6507 19.9549 19.9539C20.6516 19.2571 21 18.418 21 17.4366V5.56244C21 4.58101 20.6523 3.74191 19.9549 3.04515Z"/>

    <path id="email" d="M1.71777 6.64287C1.71777 5.79039 2.05642 4.97283 2.65922 4.37003C3.26201 3.76724 4.07958 3.42859 4.93206 3.42859H19.0715C19.924 3.42859 20.7415 3.76724 21.3443 4.37003C21.9471 4.97283 22.2858 5.79039 22.2858 6.64287V6.65145L12.0001 11.9203L1.71777 6.65487V6.64287ZM1.71777 8.09916V16.5C1.71777 17.3525 2.05642 18.1701 2.65922 18.7729C3.26201 19.3757 4.07958 19.7143 4.93206 19.7143H19.0715C19.924 19.7143 20.7415 19.3757 21.3443 18.7729C21.9471 18.1701 22.2858 17.3525 22.2858 16.5V8.09659L12.2932 13.2154C12.2025 13.2619 12.102 13.2862 12.0001 13.2862C11.8981 13.2862 11.7976 13.2619 11.7069 13.2154L1.71777 8.09916Z" />

    <path id="in" d="M16.917 2.25H6.58297C5.4338 2.25 4.33169 2.70651 3.5191 3.5191C2.70651 4.33169 2.25 5.4338 2.25 6.58297V16.917C2.25 18.0662 2.70651 19.1683 3.5191 19.9809C4.33169 20.7935 5.4338 21.25 6.58297 21.25H16.917C18.0662 21.25 19.1683 20.7935 19.9809 19.9809C20.7935 19.1683 21.25 18.0662 21.25 16.917V6.58297C21.25 5.4338 20.7935 4.33169 19.9809 3.5191C19.1683 2.70651 18.0662 2.25 16.917 2.25ZM8.67395 17.5884C8.677 17.6414 8.66918 17.6945 8.65097 17.7444C8.63276 17.7943 8.60453 17.84 8.56803 17.8786C8.53153 17.9172 8.48753 17.9479 8.43872 17.9689C8.38991 17.9898 8.33733 18.0006 8.2842 18.0005H6.54985C6.44526 17.998 6.34584 17.9545 6.27296 17.8794C6.20008 17.8044 6.15956 17.7037 6.1601 17.5991V10.3859C6.15867 10.3338 6.16769 10.282 6.18664 10.2335C6.20558 10.1849 6.23406 10.1407 6.2704 10.1034C6.30673 10.066 6.35018 10.0363 6.39818 10.0161C6.44618 9.99584 6.49775 9.98542 6.54985 9.98544H8.2842C8.3363 9.98542 8.38787 9.99584 8.43587 10.0161C8.48387 10.0363 8.52732 10.066 8.56366 10.1034C8.59999 10.1407 8.62847 10.1849 8.64742 10.2335C8.66636 10.282 8.67538 10.3338 8.67395 10.3859V17.5884ZM7.38487 8.46836C7.1971 8.46695 7.01144 8.42857 6.8385 8.35541C6.66556 8.28226 6.50872 8.17575 6.37694 8.04198C6.24516 7.90821 6.14102 7.74979 6.07046 7.57577C5.9999 7.40175 5.96431 7.21554 5.96572 7.02777C5.96713 6.84 6.0055 6.65434 6.07866 6.4814C6.15182 6.30846 6.25833 6.15162 6.3921 6.01984C6.52587 5.88806 6.68428 5.78391 6.8583 5.71336C7.03232 5.6428 7.21853 5.60721 7.40631 5.60862C7.77902 5.62074 8.13223 5.77803 8.39059 6.04694C8.64895 6.31584 8.79199 6.67507 8.78919 7.04797C8.78639 7.42086 8.63798 7.7779 8.37562 8.0429C8.11326 8.3079 7.75772 8.45988 7.38487 8.46641M17.9245 17.5767C17.9241 17.6751 17.8854 17.7695 17.8167 17.8401C17.748 17.9106 17.6546 17.9517 17.5562 17.9547H15.7254C15.6268 17.9517 15.5333 17.9104 15.4646 17.8397C15.3958 17.769 15.3573 17.6743 15.3571 17.5757V14.2395C15.3571 13.7416 15.5091 12.0735 14.0358 12.0735C12.8871 12.0735 12.6601 13.2427 12.6162 13.763V17.6517C12.6163 17.7505 12.5778 17.8454 12.5091 17.9163C12.4403 17.9873 12.3466 18.0287 12.2479 18.0317H10.4716C10.371 18.0314 10.2746 17.9913 10.2036 17.92C10.1325 17.8488 10.0926 17.7523 10.0926 17.6517V10.3508C10.0957 10.2521 10.137 10.1584 10.208 10.0896C10.2789 10.0209 10.3738 9.98247 10.4726 9.98251H12.2479C12.3467 9.98247 12.4416 10.0209 12.5125 10.0896C12.5835 10.1584 12.6249 10.2521 12.6279 10.3508V10.9793C12.8871 10.5999 13.245 10.2985 13.6629 10.1075C14.0809 9.91658 14.543 9.84338 14.9995 9.8958C17.9567 9.8958 17.9459 12.6581 17.9459 14.2288L17.9245 17.5767Z"/>

    <path id="insta" d="M13.0276 2C14.1526 2.003 14.7236 2.009 15.2166 2.023L15.4106 2.03C15.6346 2.038 15.8556 2.048 16.1226 2.06C17.1866 2.11 17.9126 2.278 18.5496 2.525C19.2096 2.779 19.7656 3.123 20.3216 3.678C20.8303 4.17773 21.2238 4.78247 21.4746 5.45C21.7216 6.087 21.8896 6.813 21.9396 7.878C21.9516 8.144 21.9616 8.365 21.9696 8.59L21.9756 8.784C21.9906 9.276 21.9966 9.847 21.9986 10.972L21.9996 11.718V13.028C22.002 13.7574 21.9944 14.4868 21.9766 15.216L21.9706 15.41C21.9626 15.635 21.9526 15.856 21.9406 16.122C21.8906 17.187 21.7206 17.912 21.4746 18.55C21.2238 19.2175 20.8303 19.8223 20.3216 20.322C19.8219 20.8307 19.2171 21.2242 18.5496 21.475C17.9126 21.722 17.1866 21.89 16.1226 21.94L15.4106 21.97L15.2166 21.976C14.7236 21.99 14.1526 21.997 13.0276 21.999L12.2816 22H10.9726C10.2429 22.0026 9.51312 21.9949 8.78359 21.977L8.58959 21.971C8.3522 21.962 8.11487 21.9517 7.87759 21.94C6.81359 21.89 6.08759 21.722 5.44959 21.475C4.78242 21.2241 4.17803 20.8306 3.67859 20.322C3.16954 19.8224 2.7757 19.2176 2.52459 18.55C2.27759 17.913 2.10959 17.187 2.05959 16.122L2.02959 15.41L2.02459 15.216C2.00616 14.4868 1.99782 13.7574 1.99959 13.028V10.972C1.99682 10.2426 2.00416 9.5132 2.02159 8.784L2.02859 8.59C2.03659 8.365 2.04659 8.144 2.05859 7.878C2.10859 6.813 2.27659 6.088 2.52359 5.45C2.77529 4.7822 3.16982 4.17744 3.67959 3.678C4.17875 3.16955 4.78278 2.77607 5.44959 2.525C6.08759 2.278 6.81259 2.11 7.87759 2.06C8.14359 2.048 8.36559 2.038 8.58959 2.03L8.78359 2.024C9.51278 2.00623 10.2422 1.99857 10.9716 2.001L13.0276 2ZM11.9996 7C10.6735 7 9.40174 7.52678 8.46406 8.46447C7.52638 9.40215 6.99959 10.6739 6.99959 12C6.99959 13.3261 7.52638 14.5979 8.46406 15.5355C9.40174 16.4732 10.6735 17 11.9996 17C13.3257 17 14.5974 16.4732 15.5351 15.5355C16.4728 14.5979 16.9996 13.3261 16.9996 12C16.9996 10.6739 16.4728 9.40215 15.5351 8.46447C14.5974 7.52678 13.3257 7 11.9996 7ZM11.9996 9C12.3936 8.99993 12.7837 9.07747 13.1477 9.22817C13.5117 9.37887 13.8424 9.5998 14.1211 9.87833C14.3997 10.1569 14.6207 10.4875 14.7715 10.8515C14.9224 11.2154 15 11.6055 15.0001 11.9995C15.0002 12.3935 14.9226 12.7836 14.7719 13.1476C14.6212 13.5116 14.4003 13.8423 14.1218 14.121C13.8432 14.3996 13.5126 14.6206 13.1486 14.7714C12.7847 14.9223 12.3946 14.9999 12.0006 15C11.2049 15 10.4419 14.6839 9.87927 14.1213C9.31666 13.5587 9.00059 12.7956 9.00059 12C9.00059 11.2044 9.31666 10.4413 9.87927 9.87868C10.4419 9.31607 11.2049 9 12.0006 9M17.2506 5.5C16.9191 5.5 16.6011 5.6317 16.3667 5.86612C16.1323 6.10054 16.0006 6.41848 16.0006 6.75C16.0006 7.08152 16.1323 7.39946 16.3667 7.63388C16.6011 7.8683 16.9191 8 17.2506 8C17.5821 8 17.9001 7.8683 18.1345 7.63388C18.3689 7.39946 18.5006 7.08152 18.5006 6.75C18.5006 6.41848 18.3689 6.10054 18.1345 5.86612C17.9001 5.6317 17.5821 5.5 17.2506 5.5Z"/>
</svg>